<svg width="202" height="134" viewBox="0 0 202 134" fill="none" xmlns="http://www.w3.org/2000/svg">
<g id="Frame 2">
<g id="record_svg">
<circle id="Ellipse 1" cx="142.5" cy="67.5" r="50.5" fill="black"/>
<circle id="Ellipse 2" cx="142.5" cy="67.5" r="16" fill="#0C7C59" stroke="#2B2B2B" stroke-width="3"/>
<circle id="Ellipse 3" cx="142.5" cy="67.5" r="1.5" fill="black"/>
<rect id="Rectangle 1" x="132" y="62" width="21" height="1" fill="black"/>
<rect id="Rectangle 2" x="137" y="57" width="11" height="1" fill="black"/>
<rect id="Rectangle 3" x="137" y="73" width="11" height="1" fill="black"/>
<path id="Ellipse 4" d="M147.688 52.5114C151.581 53.9409 154.792 56.7837 156.684 60.474" stroke="#AFAFAF"/>
<path id="Ellipse 5" d="M140.337 83.2837C137.982 82.8986 135.738 82.0072 133.761 80.671C131.784 79.3348 130.12 77.5856 128.884 75.5441C127.649 73.5026 126.871 71.2173 126.604 68.8459C126.337 66.4745 126.587 64.0734 127.338 61.8082" stroke="#AFAFAF"/>
<circle id="Ellipse 6" cx="142.5" cy="67.5" r="21.5" stroke="#171717" stroke-width="8"/>
<path id="Ellipse 8" d="M133.063 37.7089C140.742 35.2767 149.062 35.903 156.29 39.4572C163.518 43.0115 169.094 49.2191 171.856 56.7852C174.617 64.3512 174.351 72.6914 171.112 80.0658C167.874 87.4403 161.913 93.2795 154.473 96.3654C147.033 99.4513 138.689 99.5455 131.182 96.6284C123.674 93.7113 117.583 88.0081 114.179 80.7087C110.774 73.4092 110.32 65.0772 112.91 57.4507C115.5 49.8242 120.935 43.4923 128.08 39.7757" stroke="white" stroke-opacity="0.5" stroke-width="0.5"/>
<path id="Ellipse 9" d="M178.488 71.8543C177.355 81.2112 172.623 89.7593 165.295 95.6861C157.966 101.613 148.618 104.452 139.231 103.602C129.844 102.752 121.157 98.2797 115.013 91.1329C108.868 83.9861 105.749 74.727 106.316 65.3189C106.883 55.9108 111.092 47.0935 118.051 40.7365C125.009 34.3795 134.17 30.9827 143.591 31.2664C153.012 31.5501 161.952 35.4919 168.516 42.2561C175.079 49.0202 178.75 58.0748 178.75 67.5" stroke="white" stroke-opacity="0.5" stroke-width="0.5"/>
<path id="Ellipse 10" d="M112.726 98.8703C104.558 91.1178 99.7358 80.485 99.2847 69.2324C98.8336 57.9799 102.789 46.9951 110.311 38.6136C117.832 30.2321 128.326 25.1149 139.562 24.3499C150.798 23.5849 161.888 27.2325 170.477 34.5171C179.065 41.8018 184.473 52.149 185.551 63.3588C186.63 74.5686 183.293 85.757 176.251 94.5452C169.209 103.333 159.017 109.028 147.841 110.419C136.666 111.81 125.389 108.787 116.407 101.993" stroke="white" stroke-opacity="0.5" stroke-width="0.5"/>
<circle id="Ellipse 11" cx="142.5" cy="67.5" r="48.25" stroke="white" stroke-opacity="0.5" stroke-width="0.5"/>
</g>
<g id="record_cover">
<rect id="Rectangle 4" x="10" y="12" width="111" height="111" rx="2" fill="#29232E"/>
<rect id="Rectangle 5" x="29.4376" y="67.5" width="51" height="51" rx="14" transform="rotate(-45 29.4376 67.5)" fill="#F0C808"/>
<circle id="Ellipse 12" cx="61.5" cy="76.5" r="6.5" fill="#E4572E"/>
<rect id="Rectangle 6" x="64" y="57" width="4" height="20" fill="#E4572E"/>
<path id="Rectangle 7" d="M64 57C64 54.2386 66.2386 52 69 52H76V53C76 55.7614 73.7614 58 71 58H64V57Z" fill="#E4572E"/>
</g>
</g>
</svg>
